# xmcd
#
# Track frame offsets: 
#        150
#        15366
#        27697
#        43057
#        62539
#        81247
#        97071
#        110558
#        130267
#        151151
#        168097
#        182749
#        200291
#
# Disc length: 2859 seconds
#
# Revision: 0
# Processed by: cddbd v1.5.1PL0 Copyright (c) Steve Scherf et al.
# Submitted via: ExactAudioCopy v0.95a4
#
DISCID=a40b290d
DTITLE=Norah Jones - Feels Like Home
DYEAR=2001
DGENRE=Blues
TTITLE0=Sunrise
TTITLE1=What Am I to You
TTITLE2=Those Sweet Words
TTITLE3=Carnival Town
TTITLE4=In the Morning
TTITLE5=Be Here to Love Me
TTITLE6=Creepin' In
TTITLE7=Toes
TTITLE8=Humble Me
TTITLE9=Above Ground
TTITLE10=The Long Way Home
TTITLE11=The Prettiest Thing
TTITLE12=Don't Miss You at All
EXTD=
EXTT0=
EXTT1=
EXTT2=
EXTT3=
EXTT4=
EXTT5=
EXTT6=
EXTT7=
EXTT8=
EXTT9=
EXTT10=
EXTT11=
EXTT12=
PLAYORDER=
